# xmcd CD database file
#
# Track frame offsets:
#	150
#	15282
#	32512
#	47235
#	63345
#	77717
#	92872
#	111607
#	132570
#	144317
#	162362
#	180360
#	199150
#
# Disc length: 2952 seconds
#
# Revision: 1
# Processed by: cddbd v1.5.2PL0 Copyright (c) Steve Scherf et al.
# Submitted via: CDex 1.51
#
DISCID=ad0b860d
DTITLE=Cathy Fink and Marcy Marxer - Voice On the Wind
DYEAR=1997
DGENRE=Country
TTITLE0=Cactus Swing
TTITLE1=	Seasons Change
TTITLE2=Psalm of Life
TTITLE3=Shady Grove
TTITLE4=Summer's Eve
TTITLE5=Time To Learn
TTITLE6=Voice On the Wind
TTITLE7=Ruby
TTITLE8=Nobody's Body But Mine
TTITLE9=Nine Gold Medals
TTITLE10=Halfway There
TTITLE11=	Guitar Boogie
TTITLE12=What Will I Leave
EXTD=YEAR: 1997
EXTT0=
EXTT1=
EXTT2=
EXTT3=
EXTT4=
EXTT5=
EXTT6=
EXTT7=
EXTT8=
EXTT9=
EXTT10=
EXTT11=
EXTT12=
PLAYORDER=
